<svg xmlns="http://www.w3.org/2000/svg" viewBox="0 0 24 24" fill="currentColor"><path d="M12 2C6.48 2 2 6.48 2 12s4.48 10 10 10 10-4.48 10-10S17.52 2 12 2zm4.64 14.19c-.18.32-.56.43-.88.25-.32-.18-.43-.56-.25-.88.36-.64.54-1.38.54-2.16 0-.78-.18-1.52-.54-2.16-.18-.32-.07-.7.25-.88.32-.18.7-.07.88.25.48.86.72 1.84.72 2.79 0 .96-.24 1.94-.72 2.79zM9.36 7.81c.18-.32.56-.43.88-.25.32.18.43.56.25.88-.36.64-.54 1.38-.54 2.16 0 .78.18 1.52.54 2.16.18.32.07.7-.25.88-.32.18-.7.07-.88-.25-.48-.86-.72-1.84-.72-2.79 0-.96.24-1.94.72-2.79zM12 17.5c-2.33 0-4.31-1.46-5.11-3.5h10.22c-.8 2.04-2.78 3.5-5.11 3.5z"/></svg>
