<svg xmlns="http://www.w3.org/2000/svg" viewBox="0 0 24 24" fill="currentColor"><path d="M9.5 4C5.36 4 2 6.69 2 10c0 1.89 1.08 3.56 2.78 4.66L4 17l2.5-1.18C7.61 16.27 8.78 16.5 10 16.5c.34 0 .68-.02 1-.06A5.97 5.97 0 0 1 10 14.5c0-3.04 2.91-5.5 6.5-5.5.34 0 .68.02 1 .06C16.61 6.14 13.36 4 9.5 4zm-2 4a1 1 0 1 1 0 2 1 1 0 0 1 0-2zm4 0a1 1 0 1 1 0 2 1 1 0 0 1 0-2zM16.5 10c-3.04 0-5.5 2.01-5.5 4.5s2.46 4.5 5.5 4.5c.71 0 1.39-.12 2.02-.34L20.5 20l-.59-1.76C21.07 17.24 22 15.95 22 14.5c0-2.49-2.46-4.5-5.5-4.5zm-1.5 3.5a.75.75 0 1 1 0 1.5.75.75 0 0 1 0-1.5zm3 0a.75.75 0 1 1 0 1.5.75.75 0 0 1 0-1.5z"/></svg>
