<svg xmlns="http://www.w3.org/2000/svg" viewBox="0 0 24 24" fill="currentColor"><path d="M10.098 20.323c-3.977.391-7.414-1.406-7.672-4.02-.259-2.609 2.759-5.047 6.74-5.441 3.979-.394 7.413 1.404 7.671 4.018.259 2.6-2.759 5.049-6.739 5.443zM9.05 17.219c-.384.616-1.208.884-1.829.602-.612-.279-.793-.991-.406-1.593.379-.595 1.176-.86 1.799-.577.631.277.82.985.436 1.568zm1.6-2.017c-.145.228-.467.341-.715.248-.242-.088-.322-.344-.182-.567.144-.22.453-.333.697-.246.244.084.331.34.2.565zm.545-3.591c-2.627-.649-5.594.382-6.733 2.381-1.161 2.032-.235 4.308 2.157 5.058 2.475.778 5.601-.292 6.708-2.365 1.089-2.038.102-4.399-2.132-5.074zM17.812 8.42c-.344-.098-.582-.166-.402-.598.394-.94.434-1.753.006-2.337-.804-1.095-3.006-1.038-5.578-.03l.002-.001c-.369.148-.553.094-.653-.252-.198-.698-.343-1.287-.343-1.877C10.844.667 12.623 0 14.294 0c2.817 0 4.778 1.384 4.778 3.22 0 1.738-1.597 3.45-3.26 5.2v.001zm3.26-7.42c-2.573 0-5.24 1.133-5.24 4.033 0 1.395.481 2.166 1.25 2.166.637 0 1.073-.577 1.073-1.38 0-.987-.436-2.14-1.073-3.078 1.543-.627 3.009-.627 3.597-.06.329.322.329 1.082.037 2.078l.402.116c.548-.198 2.012-.756 2.012-2.635 0-1.265-1.073-2.24-2.061-2.24z"/></svg>
